:SAMPLES-PER-SECOND 30
:FULLY-SPECIFIED
:DEGREES
1469
root  2.58423 40.5283 -5.42751 128.771 -80.4501 -128.594
RightUpLeg  2.16583 -3.23398 6.88793
RightLeg  1.25271 -9.09427 6.02222
RightFoot  -2.4856 0.378813 -5.10185
RightToes  -4.65663e-010 0 -3.6325e-017
Spine  -7.801 2.51625 -7.32963
Spine1  20.9246 4.30523 -1.6612
HEad  30.8112 3.4463 12.6622
LeftShoulder1  4.62655 -9.52477 -29.4389
LeftArm  51.6021 45.2834 -2.52223
LeftForeArm  -155.24 -68.2706 -159.37
LeftHand  -0.244104 0.0205437 5.32207
RightShoulder  4.27256 8.66789 29.1231
RightArm  54.5439 -42.968 7.55893
RightForeArm  160.851 77.8389 133.815
RightHand  -9.18952 24.5223 -34.7717
LeftUpLeg  -1.94699 14.11 18.5064
LeftLeg  13.3467 6.31107 1.52499
LeftFoot  -6.63262 0.393567 -8.59577
LeftToes  4.18335e-011 1.59304e-011 3.38507e-012
1470
root  2.35058 40.422 -5.72064 127.684 -79.423 -128.445
RightUpLeg  3.43171 -3.09165 8.00084
RightLeg  1.73279 -8.9018 6.20936
RightFoot  -3.14161 0.35537 -5.24665
RightToes  -4.65663e-010 0 -3.6325e-017
Spine  -8.73595 2.83516 -7.60061
Spine1  21.4471 5.00438 -2.16195
HEad  30.6206 2.40231 15.0253
LeftShoulder1  4.61469 -9.43989 -29.5818
LeftArm  51.3678 44.5992 -2.34571
LeftForeArm  -155.224 -68.1031 -159.543
LeftHand  -0.244104 0.0205437 5.32207
RightShoulder  4.32352 8.80177 29.1559
RightArm  54.7946 -42.8877 7.78664
RightForeArm  158.12 78.1412 131.937
RightHand  -9.61732 24.9898 -35.7481
LeftUpLeg  -0.872871 13.8525 20.1005
LeftLeg  14.5706 6.45889 2.04371
LeftFoot  -7.58071 0.347521 -9.18897
LeftToes  4.18335e-011 1.59304e-011 3.38507e-012
1471
root  2.07873 40.3048 -5.96982 126.384 -78.366 -128.393
RightUpLeg  4.96139 -2.98654 9.1053
RightLeg  2.46374 -8.71156 6.25437
RightFoot  -3.93665 0.324936 -5.42637
RightToes  -4.65663e-010 0 -3.6325e-017
Spine  -9.84872 3.1712 -7.47246
Spine1  22.2547 5.70715 -2.62655
HEad  30.8088 1.49876 16.8262
LeftShoulder1  4.6214 -9.40499 -29.7324
LeftArm  50.8072 43.9936 -2.35973
LeftForeArm  -155.275 -67.9733 -159.67
LeftHand  -0.244104 0.0205437 5.32207
RightShoulder  4.37163 8.94356 29.1417
RightArm  54.8971 -42.6624 8.111
RightForeArm  155.513 78.3732 130.279
RightHand  -9.94047 25.2856 -36.527
LeftUpLeg  0.605899 13.2934 21.7667
LeftLeg  15.8267 6.7595 2.46263
LeftFoot  -8.62428 0.280548 -9.64005
LeftToes  4.18335e-011 1.59304e-011 3.38507e-012
1472
root  1.77425 40.1824 -6.17211 124.946 -77.387 -128.496
RightUpLeg  6.74208 -2.98136 10.0781
RightLeg  3.41412 -8.54559 6.19627
RightFoot  -4.83191 0.294444 -5.74549
RightToes  -4.65663e-010 0 -3.6325e-017
Spine  -11.041 3.491 -7.10496
Spine1  23.2778 6.34287 -2.98493
HEad  31.3389 0.869251 18.0145
LeftShoulder1  4.62387 -9.3703 -29.8497
LeftArm  49.9869 43.5706 -2.59626
LeftForeArm  -155.254 -67.9 -159.745
LeftHand  -0.244104 0.0205437 5.32207
RightShoulder  4.40415 9.03884 29.134
RightArm  54.8889 -42.3076 8.37156
RightForeArm  153.776 78.5143 129.184
RightHand  -10.0486 25.3889 -36.7774
LeftUpLeg  2.47667 12.4644 23.3426
LeftLeg  16.9819 7.14738 2.7867
LeftFoot  -9.69582 0.201181 -9.94807
LeftToes  4.18335e-011 1.59304e-011 3.38507e-012
1473
root  1.44689 40.0659 -6.32406 123.353 -76.6513 -128.611
RightUpLeg  8.64382 -3.15851 10.7506
RightLeg  4.53418 -8.41343 6.0831
RightFoot  -5.76511 0.258946 -6.10688
RightToes  -4.65663e-010 0 -3.6325e-017
Spine  -12.2681 3.70516 -6.71553
Spine1  24.358 6.80937 -3.22743
HEad  32.0998 0.551586 18.751
LeftShoulder1  4.56823 -9.21475 -29.8502
LeftArm  49.0272 43.2972 -3.08658
LeftForeArm  -155.259 -67.8149 -159.829
LeftHand  -0.244104 0.0205437 5.32207
RightShoulder  4.40654 9.05587 29.1047
RightArm  54.928 -41.9192 8.6044
RightForeArm  152.489 78.6246 128.318
RightHand  -10.2111 25.6716 -37.0058
LeftUpLeg  4.5448 11.4851 24.5898
LeftLeg  17.9386 7.55287 3.05624
LeftFoot  -10.6712 0.122146 -9.91417
LeftToes  4.18335e-011 1.59304e-011 3.38507e-012
1474
root  1.10901 39.9687 -6.41442 121.559 -76.2588 -128.495
RightUpLeg  10.4389 -3.68658 11.016
RightLeg  5.80185 -8.15375 5.8922
RightFoot  -6.65809 0.21308 -6.29694
RightToes  -4.65663e-010 0 -3.6325e-017
Spine  -13.5406 3.74839 -6.38715
Spine1  25.3279 7.04872 -3.39812
HEad  32.9384 0.475495 19.1838
LeftShoulder1  4.46958 -8.95482 -29.8053
LeftArm  48.1206 43.0968 -3.63247
LeftForeArm  -155.346 -67.6997 -159.935
LeftHand  -0.244104 0.0205437 5.32207
RightShoulder  4.39059 9.00639 29.1163
RightArm  54.9635 -41.6315 8.87969
RightForeArm  150.943 78.7434 127.315
RightHand  -10.5775 26.168 -37.6648
LeftUpLeg  6.53564 10.532 25.3753
LeftLeg  18.6895 7.90449 3.29445
LeftFoot  -11.4436 0.0601161 -9.43519
LeftToes  4.18335e-011 1.59304e-011 3.38507e-012
1475
root  0.77448 39.8932 -6.42923 119.626 -76.2026 -128.071
RightUpLeg  11.9427 -4.78902 10.8272
RightLeg  7.26125 -7.47648 5.54301
RightFoot  -7.50915 0.157221 -6.20129
RightToes  -4.65663e-010 0 -3.6325e-017
Spine  -14.8681 3.65718 -6.03254
Spine1  26.1567 7.11225 -3.55299
HEad  33.7938 0.496114 19.2835
LeftShoulder1  4.38431 -8.69192 -29.8785
LeftArm  47.4422 42.8455 -3.91737
LeftForeArm  -155.358 -67.6341 -159.999
LeftHand  -0.244104 0.0205437 5.32207
RightShoulder  4.3599 8.87088 29.256
RightArm  54.7346 -41.517 9.19966
RightForeArm  149.433 78.8438 126.384
RightHand  -10.9092 26.4894 -38.3872
LeftUpLeg  8.3024 9.67162 25.7118
LeftLeg  19.2583 8.15128 3.47923
LeftFoot  -12.0467 0.0175207 -8.836
LeftToes  4.18335e-011 1.59304e-011 3.38507e-012
